<?xml version="1.0" encoding="UTF-8" standalone="no"?>
<!-- Created with Inkscape (http://www.inkscape.org/) -->
<svg
   xmlns:svg="http://www.w3.org/2000/svg"
   xmlns="http://www.w3.org/2000/svg"
   version="1.0"
   width="172"
   height="279"
   id="svg2">
  <defs
     id="defs5" />
  <g
     style="display:inline"
     id="layer1">
    <g
       id="g13640">
      <path
         d="M 170,139.46646 C 170.01128,216.52325 131.95217,279 85,279 C 38.047826,279 -0.01127741,216.52325 2.63e-006,139.46646 C -0.01127741,62.409617 38.047826,-0.067117399 85,-0.067117399 C 131.95217,-0.067117399 170.01128,62.409617 170,139.46646 L 170,139.46646 z "
         style="color:black;fill:#00936f;fill-opacity:1;fill-rule:evenodd;stroke:none;stroke-width:2.00034547;stroke-linecap:butt;stroke-linejoin:round;marker:none;marker-start:none;marker-mid:none;marker-end:none;stroke-miterlimit:4;stroke-dasharray:none;stroke-dashoffset:0;stroke-opacity:1;visibility:visible;display:inline;overflow:visible"
         id="path1335" />
      <path
         d="M 67.277419,17.461852 L 76.84481,17.9633 L 70.802248,31.502339 L 81.880274,22.977757 L 85.908652,28.493662 L 79.362542,34.511015 L 92.95831,39.024035 L 92.159791,44.124535 L 86.915749,45.542835 L 71.809345,40.528368 L 82.887371,50.557292 L 82.887371,54.568854 L 77.851907,58.078978 L 67.780967,47.047168 L 69.942637,60.378499 L 61.824809,60.231629 L 61.738406,48.551511 L 55.695844,55.57175 L 50.156831,52.563073 L 58.717125,40.02692 L 44.617818,41.029815 L 44.617818,35.51391 L 55.192296,34.009577 L 49.149744,25.484996 L 54.688758,21.974872 L 63.249051,32.003786 L 67.277419,17.461852 z "
         style="fill:white;fill-opacity:1;fill-rule:evenodd;stroke:none;stroke-width:1px;stroke-linecap:butt;stroke-linejoin:miter;stroke-opacity:1"
         id="path3083" />
      <g
         transform="translate(4.59661,-3.700265)"
         style="stroke:white;stroke-opacity:1"
         id="g11855">
        <path
           d="M 80.033141,171.42231 C 80.033141,171.42231 68.258969,180.18753 46.934635,180.18753 C 25.479477,180.18753 16.190964,171.42231 16.190964,171.42231 C 16.190964,171.42231 25.479477,162.65709 46.934635,162.65709 C 68.258969,162.65709 80.033141,171.42231 80.033141,171.42231 z "
           style="fill:none;fill-opacity:0.75;fill-rule:evenodd;stroke:white;stroke-width:2.5;stroke-linecap:butt;stroke-linejoin:round;stroke-miterlimit:4;stroke-dasharray:none;stroke-opacity:1"
           id="path6483" />
        <path
           d="M 144.66026,171.42231 C 144.66026,171.42231 132.88609,180.18753 111.56175,180.18753 C 90.106599,180.18753 80.818086,171.42231 80.818086,171.42231 C 80.818086,171.42231 90.106599,162.65709 111.56175,162.65709 C 132.88609,162.65709 144.66026,171.42231 144.66026,171.42231 z "
           style="fill:none;fill-opacity:0.75;fill-rule:evenodd;stroke:white;stroke-width:2.5;stroke-linecap:butt;stroke-linejoin:round;stroke-miterlimit:4;stroke-dasharray:none;stroke-opacity:1"
           id="path6493" />
        <path
           d="M 112.31471,115.55788 C 112.31471,115.55788 114.01852,130.13722 103.35635,148.60464 C 92.628778,167.18535 80.393618,170.84683 80.393618,170.84683 C 80.393618,170.84683 77.446971,158.42013 88.174548,139.83942 C 98.836713,121.372 112.31471,115.55788 112.31471,115.55788 z "
           style="fill:none;fill-opacity:0.75;fill-rule:evenodd;stroke:white;stroke-width:2.5;stroke-linecap:butt;stroke-linejoin:round;stroke-miterlimit:4;stroke-dasharray:none;stroke-opacity:1"
           id="path6495" />
        <path
           d="M 47.547895,115.55788 C 47.547895,115.55788 45.844085,130.13722 56.506255,148.60464 C 67.233834,167.18535 79.468994,170.84683 79.468994,170.84683 C 79.468994,170.84683 82.415634,158.42013 71.688064,139.83942 C 61.025895,121.372 47.547895,115.55788 47.547895,115.55788 z "
           style="fill:none;fill-opacity:0.75;fill-rule:evenodd;stroke:white;stroke-width:2.5;stroke-linecap:butt;stroke-linejoin:round;stroke-miterlimit:4;stroke-dasharray:none;stroke-opacity:1"
           id="path7382" />
        <path
           d="M 112.31471,227.42826 C 112.31471,227.42826 114.01852,212.84892 103.35635,194.3815 C 92.628778,175.80079 80.393618,172.13931 80.393618,172.13931 C 80.393618,172.13931 77.446971,184.56601 88.174548,203.14672 C 98.836713,221.61414 112.31471,227.42826 112.31471,227.42826 z "
           style="fill:none;fill-opacity:0.75;fill-rule:evenodd;stroke:white;stroke-width:2.5;stroke-linecap:butt;stroke-linejoin:round;stroke-miterlimit:4;stroke-dasharray:none;stroke-opacity:1"
           id="path7384" />
        <path
           d="M 47.547895,227.42826 C 47.547895,227.42826 45.844085,212.84892 56.506255,194.3815 C 67.233834,175.80079 79.468994,172.13931 79.468994,172.13931 C 79.468994,172.13931 82.415634,184.56601 71.688064,203.14672 C 61.025895,221.61414 47.547895,227.42826 47.547895,227.42826 z "
           style="fill:none;fill-opacity:0.75;fill-rule:evenodd;stroke:white;stroke-width:2.5;stroke-linecap:butt;stroke-linejoin:round;stroke-miterlimit:4;stroke-dasharray:none;stroke-opacity:1"
           id="path7386" />
        <path
           d="M 47.44014,115.61799 C 47.44014,115.61799 33.962156,121.43212 23.299986,139.89954 C 12.572409,158.48025 15.519054,170.90695 15.519054,170.90695 C 15.519054,170.90695 27.754212,167.24546 38.481794,148.66476 C 49.143964,130.19734 47.44014,115.61799 47.44014,115.61799 z "
           style="fill:none;fill-opacity:0.75;fill-rule:evenodd;stroke:white;stroke-width:2.5;stroke-linecap:butt;stroke-linejoin:round;stroke-miterlimit:4;stroke-dasharray:none;stroke-opacity:1"
           id="path7388" />
        <path
           d="M 113.36664,115.61799 C 113.36664,115.61799 126.84463,121.43212 137.5068,139.89954 C 148.23437,158.48025 145.28773,170.90695 145.28773,170.90695 C 145.28773,170.90695 133.05257,167.24546 122.32499,148.66476 C 111.66282,130.19734 113.36664,115.61799 113.36664,115.61799 z "
           style="fill:none;fill-opacity:0.75;fill-rule:evenodd;stroke:white;stroke-width:2.5;stroke-linecap:butt;stroke-linejoin:round;stroke-miterlimit:4;stroke-dasharray:none;stroke-opacity:1"
           id="path7390" />
        <path
           d="M 48.269645,115.25771 C 48.269645,115.25771 60.043819,124.02293 81.368159,124.02293 C 102.82331,124.02293 112.11183,115.25771 112.11183,115.25771 C 112.11183,115.25771 102.82331,106.49249 81.36816,106.49248 C 60.043821,106.49248 48.269645,115.25771 48.269645,115.25771 z "
           style="fill:none;fill-opacity:0.75;fill-rule:evenodd;stroke:white;stroke-width:2.5;stroke-linecap:butt;stroke-linejoin:round;stroke-miterlimit:4;stroke-dasharray:none;stroke-opacity:1"
           id="path7392" />
        <path
           d="M 47.44014,227.32433 C 47.44014,227.32433 33.962156,221.5102 23.299986,203.04278 C 12.572409,184.46207 15.519054,172.03537 15.519054,172.03537 C 15.519054,172.03537 27.754212,175.69686 38.481794,194.27756 C 49.143964,212.74498 47.44014,227.32433 47.44014,227.32433 z "
           style="fill:none;fill-opacity:0.75;fill-rule:evenodd;stroke:white;stroke-width:2.5;stroke-linecap:butt;stroke-linejoin:round;stroke-miterlimit:4;stroke-dasharray:none;stroke-opacity:1"
           id="path7396" />
        <path
           d="M 113.36664,227.32433 C 113.36664,227.32433 126.84463,221.5102 137.5068,203.04278 C 148.23437,184.46207 145.28773,172.03537 145.28773,172.03537 C 145.28773,172.03537 133.05257,175.69686 122.32499,194.27756 C 111.66282,212.74498 113.36664,227.32433 113.36664,227.32433 z "
           style="fill:none;fill-opacity:0.75;fill-rule:evenodd;stroke:white;stroke-width:2.5;stroke-linecap:butt;stroke-linejoin:round;stroke-miterlimit:4;stroke-dasharray:none;stroke-opacity:1"
           id="path7398" />
        <path
           d="M 48.269645,227.68461 C 48.269645,227.68461 60.043819,218.91939 81.368159,218.91939 C 102.82331,218.91939 112.11183,227.68461 112.11183,227.68461 C 112.11183,227.68461 102.82331,236.44983 81.36816,236.44984 C 60.043821,236.44984 48.269645,227.68461 48.269645,227.68461 z "
           style="fill:none;fill-opacity:0.75;fill-rule:evenodd;stroke:white;stroke-width:2.5;stroke-linecap:butt;stroke-linejoin:round;stroke-miterlimit:4;stroke-dasharray:none;stroke-opacity:1"
           id="path7400" />
        <path
           d="M 150.7094 167.53784 A 65.935364 65.935364 0 1 1  18.838676,167.53784 A 65.935364 65.935364 0 1 1  150.7094 167.53784 z"
           transform="matrix(0.988095,0,0,0.983268,-3.361433,6.671134)"
           style="opacity:1;fill:none;fill-opacity:0.69795921;fill-rule:nonzero;stroke:white;stroke-width:2.53632307;stroke-linecap:square;stroke-linejoin:miter;stroke-miterlimit:4;stroke-dasharray:none;stroke-dashoffset:0;stroke-opacity:1"
           id="path8287" />
      </g>
    </g>
  </g>
</svg>
