<?xml version="1.0" encoding="UTF-8" standalone="no"?>
<!-- Created with Inkscape (http://www.inkscape.org/) -->
<svg
   xmlns:dc="http://purl.org/dc/elements/1.1/"
   xmlns:cc="http://web.resource.org/cc/"
   xmlns:rdf="http://www.w3.org/1999/02/22-rdf-syntax-ns#"
   xmlns:svg="http://www.w3.org/2000/svg"
   xmlns="http://www.w3.org/2000/svg"
   xmlns:sodipodi="http://sodipodi.sourceforge.net/DTD/sodipodi-0.dtd"
   xmlns:inkscape="http://www.inkscape.org/namespaces/inkscape"
   id="svg2"
   sodipodi:version="0.32"
   inkscape:version="0.44"
   width="170"
   height="279"
   version="1.0"
   sodipodi:docbase="F:\Mes documents\Dessin"
   sodipodi:docname="Parc naturel régional du Vercors.svg">
  <metadata
     id="metadata7">
    <rdf:RDF>
      <cc:Work
         rdf:about="">
        <dc:format>image/svg+xml</dc:format>
        <dc:type
           rdf:resource="http://purl.org/dc/dcmitype/StillImage" />
      </cc:Work>
    </rdf:RDF>
  </metadata>
  <defs
     id="defs5" />
  <sodipodi:namedview
     inkscape:window-height="712"
     inkscape:window-width="1024"
     inkscape:pageshadow="2"
     inkscape:pageopacity="0.0"
     borderopacity="1.0"
     bordercolor="#666666"
     pagecolor="#ffffff"
     id="base"
     inkscape:zoom="2.0050194"
     inkscape:cx="194.60728"
     inkscape:cy="171.96755"
     inkscape:window-x="-4"
     inkscape:window-y="-4"
     inkscape:current-layer="layer1" />
  <g
     inkscape:groupmode="layer"
     id="layer1"
     inkscape:label="dessin">
    <g
       id="g12650">
      <g
         style="opacity:1"
         transform="translate(-64.93345,-764.4846)"
         id="g5704">
        <path
           sodipodi:type="arc"
           style="opacity:1;color:#000000;fill:#00936f;fill-opacity:1;fill-rule:evenodd;stroke:#00936f;stroke-width:2;stroke-linecap:butt;stroke-linejoin:round;marker:none;marker-start:none;marker-mid:none;marker-end:none;stroke-miterlimit:4;stroke-dasharray:none;stroke-dashoffset:0;stroke-opacity:1;visibility:visible;display:inline;overflow:visible"
           id="path1335"
           sodipodi:cx="196.00807"
           sodipodi:cy="956.60254"
           sodipodi:rx="69.326012"
           sodipodi:ry="137.65453"
           d="M 265.33408 956.60254 A 69.326012 137.65453 0 1 1  126.68206,956.60254 A 69.326012 137.65453 0 1 1  265.33408 956.60254 z"
           transform="matrix(1.198611,0,0,1,-84.81425,-52.86732)" />
        <path
           style="fill:#ffffff;fill-opacity:1;fill-rule:evenodd;stroke:none;stroke-width:1px;stroke-linecap:butt;stroke-linejoin:miter;stroke-opacity:1"
           d="M 132.66704,782.53936 L 142.14326,783.03811 L 136.15828,796.50431 L 147.13074,788.02559 L 151.12073,793.51182 L 144.637,799.4968 L 158.10321,803.98554 L 157.3123,809.0586 L 152.11823,810.46927 L 137.15578,805.48178 L 148.12824,815.45675 L 148.12824,819.44673 L 143.14076,822.93797 L 133.16579,811.96551 L 135.30686,825.22512 L 127.26639,825.07904 L 127.18081,813.46176 L 121.19583,820.44423 L 115.7096,817.45174 L 124.18832,804.98303 L 110.22337,805.98053 L 110.22337,800.4943 L 120.69708,798.99806 L 114.71211,790.51934 L 120.19834,787.0281 L 128.67706,797.00306 L 132.66704,782.53936 z "
           id="path3083"
           sodipodi:nodetypes="ccccccccccccccccccccccccccc" />
      </g>
      <path
         sodipodi:nodetypes="ccccc"
         id="path9986"
         d="M 9.9749659,76.508192 L 161.0957,76.508192 L 162.0932,79.500681 L 8.3628952,79.500681 L 9.9749659,76.508192 z "
         style="fill:white;fill-opacity:1;fill-rule:evenodd;stroke:none;stroke-width:1px;stroke-linecap:butt;stroke-linejoin:miter;stroke-opacity:1" />
      <path
         sodipodi:nodetypes="cccssscscscscsssssccccccscccsccccccccccssscsscccsccccccccscccccsccczcssccc"
         id="path9989"
         d="M 83.582388,278.29466 L 89.577749,278.29466 L 89.577749,248.31786 C 89.577749,248.31786 92.928099,249.5522 96.278447,248.31786 C 99.628795,247.08352 99.099789,247.08352 102.97914,243.3805 C 106.85849,239.67748 108.181,239.14848 111.79585,233.50579 C 115.4107,227.8631 117.43854,220.80973 117.43854,220.80973 C 117.43854,220.80973 120.25989,214.4617 121.67056,208.11367 C 123.08123,201.76564 123.08124,195.41761 123.08124,195.41761 C 123.08124,195.41761 122.9049,191.27376 124.84458,186.95357 C 126.78426,182.63339 130.83994,178.13687 130.83994,178.13687 C 130.83994,178.13687 132.25062,175.84452 134.01396,174.96285 C 135.7773,174.08118 137.89331,174.61018 137.89331,174.61018 C 137.89331,174.61018 137.54064,172.58234 135.42463,170.37816 C 133.30862,168.17398 132.07428,167.11598 129.42927,165.79347 C 125.52046,164.48318 120.45896,164.1965 116.38054,165.08814 C 112.41302,166.23431 112.58936,166.58698 108.97451,169.67283 C 105.35966,172.75868 104.74249,173.02318 101.92114,177.43153 C 99.099792,181.83988 97.68912,187.30624 97.68912,187.30624 L 93.809769,197.88629 L 91.34109,203.88165 L 88.872412,206.35033 L 88.872412,197.53362 L 89.930417,185.89557 C 89.930417,185.89557 90.900254,177.43153 93.4571,171.0835 C 96.013946,164.73547 100.1578,160.50345 100.1578,160.50345 L 106.8585,154.15542 L 114.61719,149.9234 C 113.13985,149.41931 104.22561,151.21023 100.86313,152.74475 C 95.837607,155.47793 92.046427,160.15078 92.046427,160.15078 L 88.519744,163.67747 L 88.519744,148.16006 L 92.751764,148.16006 L 98.394456,147.80739 L 102.62648,146.39672 L 106.50583,142.51737 L 107.9165,137.58001 L 110.03251,124.53128 L 118.14388,106.5452 C 118.14388,106.5452 115.23436,107.25053 111.44318,107.95587 C 107.652,108.66121 106.68216,109.45471 102.27381,111.12989 C 97.865457,112.80506 97.512787,112.36423 93.809769,114.65657 C 90.106751,116.94891 87.461739,120.29926 87.461739,120.29926 C 87.461739,120.29926 83.582388,116.94892 80.055705,115.00924 C 76.529022,113.06957 76.440855,112.62873 72.64967,111.12989 C 68.858486,109.63105 64.890968,109.01388 64.890968,109.01388 L 56.07426,107.25054 L 57.837602,111.48256 C 57.837602,111.48256 59.424609,114.0394 60.658948,118.53592 C 61.893287,123.03244 62.774958,129.46864 62.774958,129.46864 L 64.890968,139.34335 L 68.064982,144.63338 L 72.64967,147.45472 L 77.234358,148.8654 L 82.877051,148.8654 L 82.877051,205.29232 L 81.11371,201.76564 C 81.11371,201.76564 80.143872,197.97446 77.939695,194.71228 C 75.735518,191.4501 72.297002,188.71691 72.297002,188.71691 L 68.417651,184.48489 L 63.127626,179.19487 L 57.484933,175.31552 L 53.252914,172.84684 C 53.252914,172.84684 50.255234,171.25983 46.199548,170.73083 C 42.143862,170.20183 37.030172,170.73083 37.030172,170.73083 L 40.909523,175.66819 L 44.436206,180.95821 C 44.436206,180.95821 46.993051,183.82364 48.315557,189.06958 C 49.638063,194.31552 50.431567,207.761 50.431567,207.761 C 51.066181,215.6629 54.504585,222.05151 58.19027,228.9211 C 61.266236,235.19674 65.562634,240.70254 71.238997,244.79117 C 75.118348,247.52435 79.350368,248.67053 79.350368,248.67053 L 83.582388,248.67053 L 83.582388,278.29466 z "
         style="fill:white;fill-opacity:1;fill-rule:evenodd;stroke:none;stroke-width:1px;stroke-linecap:butt;stroke-linejoin:miter;stroke-opacity:1;opacity:1" />
      <path
         transform="matrix(0.511628,0,0,0.511628,41.96446,102.0974)"
         d="M 165.58443 139.1011 A 10.723088 10.723088 0 1 1  144.13826,139.1011 A 10.723088 10.723088 0 1 1  165.58443 139.1011 z"
         sodipodi:ry="10.723088"
         sodipodi:rx="10.723088"
         sodipodi:cy="139.1011"
         sodipodi:cx="154.86134"
         id="path10878"
         style="opacity:1;color:black;fill:#00936f;fill-opacity:1;fill-rule:evenodd;stroke:none;stroke-width:0;stroke-linecap:butt;stroke-linejoin:round;marker:none;marker-start:none;marker-mid:none;marker-end:none;stroke-miterlimit:4;stroke-dasharray:none;stroke-dashoffset:0;stroke-opacity:1;visibility:visible;display:inline;overflow:visible"
         sodipodi:type="arc" />
    </g>
  </g>
</svg>
